# xmcd
#
# Track frame offsets: 
#        150
#        10289
#        26590
#        39100
#        53169
#        70254
#        80741
#        95423
#        117874
#        129851
#        144200
#
# Disc length: 2216 seconds
#
# Revision: 1
# Processed by: cddbd v1.5.2PL0 Copyright (c) Steve Scherf et al.
# Submitted via: ExactAudioCopy v1.0b3
#
DISCID=8408a60b
DTITLE=Faith Hill - Joy to the World
DYEAR=2008
DGENRE=Christmas
TTITLE0=Joy to the World!
TTITLE1=What Child Is This?
TTITLE2=Santa Claus Is Comin' to Town
TTITLE3=Little Drummer Boy
TTITLE4=O Come, All Ye Faithful
TTITLE5=Holly Jolly Christmas
TTITLE6=Away in a Manger
TTITLE7=O Holy Night!
TTITLE8=Winter Wonderland
TTITLE9=Silent Night, Holy Night!
TTITLE10=A Baby Changes Everything
EXTD=
EXTT0=
EXTT1=
EXTT2=
EXTT3=
EXTT4=
EXTT5=
EXTT6=
EXTT7=
EXTT8=
EXTT9=
EXTT10=
PLAYORDER=
